<svg width="512" height="512" viewBox="0 0 512 512" fill="none" xmlns="http://www.w3.org/2000/svg">
  <!-- Background -->
  <rect width="512" height="512" rx="128" fill="url(#gradient)"/>
  
  <!-- Microphone icon -->
  <path d="M256 96C229.49 96 208 117.49 208 144V256C208 282.51 229.49 304 256 304C282.51 304 304 282.51 304 256V144C304 117.49 282.51 96 256 96Z" fill="white"/>
  
  <!-- Sound waves -->
  <path d="M352 256C352 309.019 309.019 352 256 352C202.981 352 160 309.019 160 256" stroke="white" stroke-width="24" stroke-linecap="round" fill="none"/>
  <path d="M384 256C384 326.692 326.692 384 256 384C185.308 384 128 326.692 128 256" stroke="white" stroke-width="20" stroke-linecap="round" fill="none" opacity="0.6"/>
  
  <!-- Stand -->
  <line x1="256" y1="352" x2="256" y2="416" stroke="white" stroke-width="24" stroke-linecap="round"/>
  <line x1="216" y1="416" x2="296" y2="416" stroke="white" stroke-width="24" stroke-linecap="round"/>
  
  <defs>
    <linearGradient id="gradient" x1="0" y1="0" x2="512" y2="512" gradientUnits="userSpaceOnUse">
      <stop stop-color="#4a90e2"/>
      <stop offset="1" stop-color="#2563b5"/>
    </linearGradient>
  </defs>
</svg>
